# xmcd CD database file
# Copyright (C) 1996 Ti Kan
#
# Track frame offsets:
#	183
#	14503
#	24048
#	30518
#	42003
#	51705
#	60268
#	72118
#	82475
#	91898
#	103220
#	114533
# Disc length: 1657 seconds
#
# Revision: 1
# Processed by: cddbd v1.4PL0 Copyright (c) Steve Scherf et al.
# Submitted via: CDCOPY 4.900
#
DISCID=9806770c
DTITLE=Divers - Trompette Succes
DYEAR=1900
DGENRE=
TTITLE0=Mi Soledad
TTITLE1=M'en Allant Promener
TTITLE2=Jamais Tu Ne l'auras
TTITLE3=Ce Silence, Ce Temps perdu
TTITLE4=Roulez Chauffeur
TTITLE5=OK Big Bill
TTITLE6=Spleen
TTITLE7=Paris Pigalle
TTITLE8=Special Generique
TTITLE9=Hameçon et Lumière
TTITLE10=Retirez les Scellés
TTITLE11=SVP Mon Coeur
EXTD=
EXTT0=
EXTT1=
EXTT2=
EXTT3=
EXTT4=
EXTT5=
EXTT6=
EXTT7=
EXTT8=
EXTT9=
EXTT10=
EXTT11=
PLAYORDER=
